<svg width="1200" height="300" viewBox="0 0 1200 300" fill="none" xmlns="http://www.w3.org/2000/svg">
  <defs>
    <linearGradient id="rowingapi-logo-gradient" x1="50" y1="20" x2="360" y2="280" gradientUnits="userSpaceOnUse">
      <stop offset="0" stop-color="#0B1F52" />
      <stop offset="1" stop-color="#1976D2" />
    </linearGradient>
    <linearGradient id="rowingapi-wave-gradient" x1="40" y1="210" x2="360" y2="210" gradientUnits="userSpaceOnUse">
      <stop offset="0" stop-color="#00A4E4" />
      <stop offset="1" stop-color="#36C2FF" />
    </linearGradient>
  </defs>

  <rect x="40" y="20" width="320" height="260" rx="52" fill="url(#rowingapi-logo-gradient)" />

  <path d="M112 102L206 194" stroke="#F4C644" stroke-width="18" stroke-linecap="round" />
  <rect x="199" y="187" width="44" height="14" rx="7" transform="rotate(44.2 199 187)" fill="#F4C644" />

  <path d="M286 102L192 194" stroke="#F4C644" stroke-width="18" stroke-linecap="round" />
  <rect x="289" y="102" width="44" height="14" rx="7" transform="rotate(135.8 289 102)" fill="#F4C644" />

  <path d="M84 208C111 188 139 188 166 208C193 228 221 228 248 208C275 188 303 188 330 208" stroke="url(#rowingapi-wave-gradient)" stroke-width="14" stroke-linecap="round" />

  <text x="410" y="178" fill="#10203A" font-family="'BIZ UDPGothic','Noto Sans JP',sans-serif" font-size="108" font-weight="800" letter-spacing="1.5">RowingAPI</text>
</svg>
